<svg xmlns="http://www.w3.org/2000/svg" width="600" height="600" viewBox="0 0 700 700"><defs><style>.a{fill:rgba(0,0,0,0);stroke-width:1.593px;}.a,.b{stroke:#7ab9f3;}.a,.b,.c,.d,.f{stroke-miterlimit:10;}.b,.e,.f{fill:rgba(31,103,212,0);}.c,.d{fill:none;}.c,.f{stroke:#0085ff;}.c,.d,.f{stroke-linecap:round;stroke-width:2px;}.d{stroke:#1f93fe;}</style></defs>
<g xmlns="http://www.w3.org/2000/svg"><circle class="a" cx="219.316" cy="219.316" r="219.316" transform="translate(310.159 620.319) rotate(-135)"/><circle class="a" cx="204.081" cy="204.081" r="204.081" transform="translate(310.159 598.773) rotate(-135)"/><circle class="a" cx="188.846" cy="188.846" r="188.846" transform="translate(192.035 549.684) rotate(-108.749)"/><ellipse class="a" cx="173.611" cy="173.611" rx="173.611" ry="173.611" transform="matrix(-0.322, -0.947, 0.947, -0.322, 201.72, 530.438)"/><circle class="a" cx="158.376" cy="158.376" r="158.376" transform="translate(211.379 511.177) rotate(-108.83)"/><ellipse class="a" cx="143.141" cy="143.141" rx="143.141" ry="143.141" transform="translate(221.011 491.904) rotate(-108.871)"/><ellipse class="a" cx="127.906" cy="127.906" rx="127.906" ry="127.906" transform="translate(230.615 472.617) rotate(-108.912)"/><ellipse class="a" cx="112.671" cy="112.671" rx="112.671" ry="112.671" transform="translate(240.192 453.317) rotate(-108.953)"/><ellipse class="a" cx="97.436" cy="97.436" rx="97.436" ry="97.436" transform="translate(249.742 434.003) rotate(-108.995)"/><circle class="a" cx="82.201" cy="82.201" r="82.201" transform="translate(259.265 414.676) rotate(-109.036)"/><ellipse class="a" cx="66.966" cy="66.966" rx="66.966" ry="66.966" transform="matrix(-0.327, -0.945, 0.945, -0.327, 268.759, 395.335)"/><ellipse class="a" cx="51.731" cy="51.731" rx="51.731" ry="51.731" transform="translate(278.226 375.98) rotate(-109.119)"/><ellipse class="a" cx="36.496" cy="36.496" rx="36.496" ry="36.496" transform="translate(287.664 356.612) rotate(-109.161)"/><path class="a" d="M444.1,309.314a21.261,21.261,0,1,0,21.261-21.261A21.261,21.261,0,0,0,444.1,309.314Z" transform="translate(-155.204 0.846)"/></g>
</svg>